<svg xmlns="http://www.w3.org/2000/svg" width="1200" height="543" viewBox="0 0 1200 543" font-family="Inter, ui-sans-serif, system-ui, -apple-system, 'Segoe UI', Roboto, 'Helvetica Neue', Arial, sans-serif" role="img"><defs><radialGradient id="plGlow" cx="14%" cy="0%" r="92%"><stop offset="0%" stop-color="#F1F5F9" stop-opacity="0.6"/><stop offset="100%" stop-color="#F1F5F9" stop-opacity="0"/></radialGradient></defs><rect x="0" y="0" width="1200" height="543" rx="20" fill="#FFFFFF"/><rect x="0" y="0" width="1200" height="543" rx="20" fill="url(#plGlow)"/><rect x="0.5" y="0.5" width="1199" height="542" rx="19.5" fill="none" stroke="#E2E8F0"/><text x="32" y="56" fill="#0F172A" font-size="30" font-weight="700" letter-spacing="-0.6">Checkout Squad</text><text x="32" y="79" fill="#64748B" font-size="14.5">What we are doing, what is queued, what we have parked</text><circle cx="990.46" cy="44" r="4" fill="#D97706"/><text x="1001.46" y="48" fill="#64748B" font-size="11.5" font-weight="600">conversion</text><circle cx="1093.85" cy="44" r="4" fill="#7C3AED"/><text x="1104.85" y="48" fill="#64748B" font-size="11.5" font-weight="600">payments</text><rect x="32" y="108" width="270.5" height="403" rx="16" fill="#F8FAFC"/><rect x="32" y="108" width="270.5" height="3" rx="1.5" fill="#7C3AED" fill-opacity="0.9"/><text x="46" y="138" fill="#0F172A" font-size="14" font-weight="700">Now</text><text x="288.5" y="138" fill="#94A3B8" font-size="12" font-weight="700" text-anchor="end">3</text><rect x="46" y="156" width="242.5" height="122" rx="11" fill="#F8FAFC"/><rect x="46" y="156" width="3" height="122" rx="1.5" fill="#D97706" fill-opacity="0.95"/><rect x="46.5" y="156.5" width="241.5" height="121" rx="10.5" fill="none" stroke="#E2E8F0" stroke-opacity="0.85"/><text x="59" y="179" fill="#0F172A" font-size="13.5" font-weight="600">Guest checkout without an</text><text x="59" y="198" fill="#0F172A" font-size="13.5" font-weight="600">account</text><text x="59" y="219" fill="#64748B" font-size="11.5">Cuts a 4-step flow down to 1</text><rect x="59" y="235" width="82.09" height="17" rx="8.5" fill="#D97706" fill-opacity="0.18"/><text x="100.05" y="247" fill="#0F172A" font-size="10.5" font-weight="600" text-anchor="middle" fill-opacity="0.9">conversion</text><circle cx="67" cy="263" r="8" fill="#D97706" fill-opacity="0.34"/><text x="67" y="266" fill="#0F172A" font-size="8.5" font-weight="700" text-anchor="middle">DE</text><rect x="177.5" y="260" width="56" height="6" rx="3" fill="#CBD5E1" fill-opacity="0.5"/><rect x="177.5" y="260" width="39.2" height="6" rx="3" fill="#D97706"/><text x="275.5" y="267" fill="#64748B" font-size="10.5" font-weight="600" text-anchor="end">70%</text><rect x="46" y="288" width="242.5" height="87" rx="11" fill="#F8FAFC"/><rect x="46" y="288" width="3" height="87" rx="1.5" fill="#7C3AED" fill-opacity="0.95"/><rect x="46.5" y="288.5" width="241.5" height="86" rx="10.5" fill="none" stroke="#E2E8F0" stroke-opacity="0.85"/><text x="59" y="311" fill="#0F172A" font-size="13.5" font-weight="600">Apple Pay and Google Pay</text><rect x="59" y="332" width="73.66" height="17" rx="8.5" fill="#7C3AED" fill-opacity="0.18"/><text x="95.83" y="344" fill="#0F172A" font-size="10.5" font-weight="600" text-anchor="middle" fill-opacity="0.9">payments</text><circle cx="67" cy="360" r="8" fill="#7C3AED" fill-opacity="0.34"/><text x="67" y="363" fill="#0F172A" font-size="8.5" font-weight="700" text-anchor="middle">MA</text><rect x="177.5" y="357" width="56" height="6" rx="3" fill="#CBD5E1" fill-opacity="0.5"/><rect x="177.5" y="357" width="22.4" height="6" rx="3" fill="#7C3AED"/><text x="275.5" y="364" fill="#64748B" font-size="10.5" font-weight="600" text-anchor="end">40%</text><rect x="46" y="385" width="242.5" height="106" rx="11" fill="#F8FAFC"/><rect x="46" y="385" width="3" height="106" rx="1.5" fill="#7C3AED" fill-opacity="0.95"/><rect x="46.5" y="385.5" width="241.5" height="105" rx="10.5" fill="none" stroke="#E2E8F0" stroke-opacity="0.85"/><text x="59" y="408" fill="#0F172A" font-size="13.5" font-weight="600">Fix the duplicate-charge</text><text x="59" y="427" fill="#0F172A" font-size="13.5" font-weight="600">race</text><rect x="59" y="448" width="73.66" height="17" rx="8.5" fill="#7C3AED" fill-opacity="0.18"/><text x="95.83" y="460" fill="#0F172A" font-size="10.5" font-weight="600" text-anchor="middle" fill-opacity="0.9">payments</text><text x="275.5" y="480" fill="#E11D48" font-size="10.5" font-weight="700" text-anchor="end" letter-spacing="0.4">blocked</text><rect x="320.5" y="108" width="270.5" height="403" rx="16" fill="#F8FAFC"/><rect x="320.5" y="108" width="270.5" height="3" rx="1.5" fill="#7C3AED" fill-opacity="0.9"/><text x="334.5" y="138" fill="#0F172A" font-size="14" font-weight="700">Next</text><text x="577" y="138" fill="#94A3B8" font-size="12" font-weight="700" text-anchor="end">3</text><rect x="334.5" y="156" width="242.5" height="65" rx="11" fill="#F8FAFC"/><rect x="334.5" y="156" width="3" height="65" rx="1.5" fill="#7C3AED" fill-opacity="0.95"/><rect x="335" y="156.5" width="241.5" height="64" rx="10.5" fill="none" stroke="#E2E8F0" stroke-opacity="0.85"/><text x="347.5" y="179" fill="#0F172A" font-size="13.5" font-weight="600">Saved cards in the wallet</text><rect x="347.5" y="200" width="73.66" height="17" rx="8.5" fill="#7C3AED" fill-opacity="0.18"/><text x="384.33" y="212" fill="#0F172A" font-size="10.5" font-weight="600" text-anchor="middle" fill-opacity="0.9">payments</text><rect x="334.5" y="231" width="242.5" height="65" rx="11" fill="#F8FAFC"/><rect x="334.5" y="231" width="3" height="65" rx="1.5" fill="#D97706" fill-opacity="0.95"/><rect x="335" y="231.5" width="241.5" height="64" rx="10.5" fill="none" stroke="#E2E8F0" stroke-opacity="0.85"/><text x="347.5" y="254" fill="#0F172A" font-size="13.5" font-weight="600">Address autocomplete</text><rect x="347.5" y="275" width="82.09" height="17" rx="8.5" fill="#D97706" fill-opacity="0.18"/><text x="388.55" y="287" fill="#0F172A" font-size="10.5" font-weight="600" text-anchor="middle" fill-opacity="0.9">conversion</text><rect x="334.5" y="306" width="242.5" height="63" rx="11" fill="#F8FAFC"/><rect x="334.5" y="306" width="3" height="63" rx="1.5" fill="#0891B2" fill-opacity="0.95"/><rect x="335" y="306.5" width="241.5" height="62" rx="10.5" fill="none" stroke="#E2E8F0" stroke-opacity="0.85"/><text x="347.5" y="329" fill="#0F172A" font-size="13.5" font-weight="600">One-tap reorder</text><circle cx="355.5" cy="354" r="8" fill="#0891B2" fill-opacity="0.34"/><text x="355.5" y="357" fill="#0F172A" font-size="8.5" font-weight="700" text-anchor="middle">DE</text><rect x="609" y="108" width="270.5" height="403" rx="16" fill="#F8FAFC"/><rect x="609" y="108" width="270.5" height="3" rx="1.5" fill="#059669" fill-opacity="0.9"/><text x="623" y="138" fill="#0F172A" font-size="14" font-weight="700">Later</text><text x="865.5" y="138" fill="#94A3B8" font-size="12" font-weight="700" text-anchor="end">3</text><rect x="623" y="156" width="242.5" height="60" rx="11" fill="#F8FAFC"/><rect x="623" y="156" width="3" height="60" rx="1.5" fill="#059669" fill-opacity="0.95"/><rect x="623.5" y="156.5" width="241.5" height="59" rx="10.5" fill="none" stroke="#E2E8F0" stroke-opacity="0.85"/><text x="636" y="179" fill="#0F172A" font-size="13.5" font-weight="600">Split payments across</text><text x="636" y="198" fill="#0F172A" font-size="13.5" font-weight="600">cards</text><rect x="623" y="226" width="242.5" height="84" rx="11" fill="#F8FAFC"/><rect x="623" y="226" width="3" height="84" rx="1.5" fill="#7C3AED" fill-opacity="0.95"/><rect x="623.5" y="226.5" width="241.5" height="83" rx="10.5" fill="none" stroke="#E2E8F0" stroke-opacity="0.85"/><text x="636" y="249" fill="#0F172A" font-size="13.5" font-weight="600">Buy now, pay later</text><text x="636" y="268" fill="#0F172A" font-size="13.5" font-weight="600">partners</text><rect x="636" y="289" width="73.66" height="17" rx="8.5" fill="#7C3AED" fill-opacity="0.18"/><text x="672.83" y="301" fill="#0F172A" font-size="10.5" font-weight="600" text-anchor="middle" fill-opacity="0.9">payments</text><rect x="623" y="320" width="242.5" height="41" rx="11" fill="#F8FAFC"/><rect x="623" y="320" width="3" height="41" rx="1.5" fill="#059669" fill-opacity="0.95"/><rect x="623.5" y="320.5" width="241.5" height="40" rx="10.5" fill="none" stroke="#E2E8F0" stroke-opacity="0.85"/><text x="636" y="343" fill="#0F172A" font-size="13.5" font-weight="600">Subscription checkout</text><rect x="897.5" y="108" width="270.5" height="403" rx="16" fill="#F8FAFC"/><rect x="897.5" y="108" width="270.5" height="3" rx="1.5" fill="#7C3AED" fill-opacity="0.9"/><text x="911.5" y="138" fill="#0F172A" font-size="14" font-weight="700">Shipped</text><text x="1154" y="138" fill="#94A3B8" font-size="12" font-weight="700" text-anchor="end">2</text><rect x="911.5" y="156" width="242.5" height="87" rx="11" fill="#F8FAFC"/><rect x="911.5" y="156" width="3" height="87" rx="1.5" fill="#7C3AED" fill-opacity="0.95"/><rect x="912" y="156.5" width="241.5" height="86" rx="10.5" fill="none" stroke="#E2E8F0" stroke-opacity="0.85"/><text x="924.5" y="179" fill="#0F172A" font-size="13.5" font-weight="600" fill-opacity="0.78">New card form</text><rect x="924.5" y="200" width="73.66" height="17" rx="8.5" fill="#7C3AED" fill-opacity="0.18"/><text x="961.33" y="212" fill="#0F172A" font-size="10.5" font-weight="600" text-anchor="middle" fill-opacity="0.9">payments</text><rect x="1043" y="225" width="56" height="6" rx="3" fill="#CBD5E1" fill-opacity="0.5"/><rect x="1043" y="225" width="56" height="6" rx="3" fill="#059669"/><text x="1141" y="232" fill="#64748B" font-size="10.5" font-weight="600" text-anchor="end">100%</text><rect x="911.5" y="253" width="242.5" height="63" rx="11" fill="#F8FAFC"/><rect x="911.5" y="253" width="3" height="63" rx="1.5" fill="#DB2777" fill-opacity="0.95"/><rect x="912" y="253.5" width="241.5" height="62" rx="10.5" fill="none" stroke="#E2E8F0" stroke-opacity="0.85"/><text x="924.5" y="276" fill="#0F172A" font-size="13.5" font-weight="600" fill-opacity="0.78">Inline validation</text><circle cx="932.5" cy="301" r="8" fill="#DB2777" fill-opacity="0.34"/><text x="932.5" y="304" fill="#0F172A" font-size="8.5" font-weight="700" text-anchor="middle">DE</text><rect x="1043" y="298" width="56" height="6" rx="3" fill="#CBD5E1" fill-opacity="0.5"/><rect x="1043" y="298" width="56" height="6" rx="3" fill="#059669"/><text x="1141" y="305" fill="#64748B" font-size="10.5" font-weight="600" text-anchor="end">100%</text></svg>
